# Blender 4.0.2
# www.blender.org
mtllib cube_nose.mtl
o model_0
v 0.156414 3.853300 -0.471634
v 0.215284 3.411017 -0.784246
v 0.186151 3.635989 -0.595944
v -0.014341 3.772112 -0.560453
v -0.025679 3.623728 -0.663580
v -0.057350 3.409194 -0.792632
v -0.060412 3.409602 -0.765861
v 0.170383 3.424894 -0.430050
v -0.070322 3.408010 -0.551338
v 0.144813 3.723821 -0.317885
v -0.044005 3.563497 -0.692585
v 0.152678 3.724642 -0.333534
v -0.043970 3.294311 -0.488695
v 0.116281 3.339140 -0.570668
v -0.054253 3.369312 -0.470802
v 0.166881 3.775282 -0.493603
v -0.051243 3.417533 -0.800447
v 0.193359 3.517889 -0.485952
v 0.170124 3.343712 -0.459160
v 0.143992 3.597924 -0.359151
v 0.130272 3.721862 -0.310798
v 0.138319 3.721123 -0.313027
v -0.025346 3.652429 -0.643499
v 0.187431 3.529713 -0.718638
v 0.169579 3.646766 -0.638638
v 0.189637 3.570536 -0.684423
v -0.028715 3.867182 -0.332202
v -0.034481 3.838784 -0.342071
v 0.153155 3.855500 -0.484780
v 0.146026 3.869962 -0.482416
v 0.149692 3.798554 -0.534545
v -0.042628 3.416587 -0.807236
v 0.143641 3.856755 -0.316274
v -0.028295 3.848171 -0.325753
v -0.017670 3.858859 -0.317637
v 0.202953 3.416087 -0.796271
v 0.174895 3.663644 -0.416884
v -0.029420 3.722242 -0.327790
v -0.033541 3.654278 -0.636448
v 0.180820 3.655227 -0.621217
v -0.025115 3.702702 -0.606903
v 0.138936 3.882087 -0.469205
v -0.011694 3.881702 -0.475417
v 0.138852 3.875217 -0.481602
v -0.051041 3.640910 -0.443466
v 0.207235 3.407785 -0.538462
v -0.009033 3.874952 -0.488536
v 0.153294 3.831730 -0.336329
v 0.215525 3.174687 -0.784908
v 0.210620 3.410562 -0.794739
v 0.188974 3.176238 -0.525037
v 0.201728 3.403469 -0.799824
v -0.021632 3.868189 -0.480949
v -0.023136 3.720664 -0.321198
v 0.132309 3.862451 -0.310760
v -0.018961 3.871650 -0.319719
v -0.016390 3.871142 -0.487212
v 0.129348 3.882169 -0.321110
v -0.040732 3.404920 -0.810903
v -0.015704 3.721739 -0.317529
v -0.049531 3.405023 -0.807559
v 0.126707 3.178039 -0.803491
v -0.035375 3.723075 -0.344815
v 0.204439 3.198878 -0.532155
v -0.034247 3.774890 -0.504074
v -0.037381 3.490177 -0.756289
v 0.203952 3.169944 -0.542585
v -0.032864 3.449196 -0.426493
v 0.036803 3.339963 -0.807337
v -0.042981 3.429406 -0.437919
v -0.013027 3.339660 -0.809713
v 0.184662 3.352087 -0.465204
v -0.026046 3.851769 -0.480475
v -0.053227 3.606180 -0.449160
v 0.146821 3.865991 -0.327044
v 0.148682 3.875404 -0.470012
v 0.172997 3.658344 -0.628775
v 0.207091 3.215452 -0.537610
v 0.166210 3.592036 -0.384318
v 0.184275 3.270438 -0.489631
v -0.024514 3.593138 -0.368828
v -0.016348 3.881745 -0.327456
v -0.023328 3.876925 -0.328686
v -0.054536 3.173541 -0.537611
v -0.068529 3.182217 -0.550169
v -0.062273 3.171618 -0.543033
v 0.134568 3.875746 -0.314573
v 0.137254 3.880016 -0.323963
v 0.176555 3.339975 -0.800765
v 0.126732 3.340069 -0.803231
v -0.070201 3.212142 -0.550483
v 0.217476 3.408626 -0.763001
v 0.038570 3.172760 -0.807348
v 0.190230 3.158185 -0.534698
v 0.198576 3.170087 -0.531994
v -0.053691 3.158449 -0.545717
v 0.197746 3.155807 -0.544043
v 0.190627 3.151608 -0.545314
v -0.053861 3.151691 -0.555564
v 0.025907 3.339073 -0.574684
v 0.115697 3.151874 -0.570309
v -0.023695 3.339164 -0.577096
v 0.166005 3.152024 -0.567989
v -0.058834 3.194287 -0.785430
v 0.037089 3.151979 -0.797322
v 0.165678 3.339106 -0.568264
v 0.176864 3.164196 -0.800258
v -0.043000 3.167284 -0.810694
v 0.211236 3.158519 -0.785657
v 0.204316 3.164404 -0.799006
v 0.176418 3.152295 -0.791867
v 0.204154 3.152482 -0.790639
v -0.053897 3.166739 -0.801582
v -0.023801 3.151888 -0.576716
v 0.209617 3.174334 -0.795828
v -0.013165 3.169763 -0.809412
v 0.126278 3.156620 -0.799631
v 0.125507 3.151955 -0.792011
v 0.026335 3.151929 -0.574340
v 0.217419 3.209163 -0.764968
v -0.013593 3.157728 -0.806823
v -0.043987 3.152449 -0.802255
v -0.049950 3.158239 -0.802880
v -0.013684 3.152043 -0.798845
v 0.036807 3.159532 -0.805100
v -0.062017 3.157671 -0.555921
vn 0.8368 0.3808 -0.3934
vn -0.9877 0.1313 -0.0845
vn -0.9336 0.2482 -0.2583
vn -0.9457 -0.0630 0.3187
vn -0.9820 0.1503 -0.1146
vn 0.8830 -0.0876 0.4612
vn 0.9454 0.2624 -0.1932
vn 0.9388 -0.0375 0.3425
vn -0.9965 0.0519 0.0661
vn 0.9665 0.0011 0.2568
vn 0.9670 0.0004 0.2547
vn -0.3427 -0.3322 0.8788
vn 0.9661 -0.0002 0.2582
vn -0.9565 -0.0504 0.2873
vn 0.8934 0.0024 0.4492
vn 0.9039 0.0060 0.4276
vn -0.9863 0.0001 0.1648
vn 0.2954 -0.3233 0.8990
vn -0.7883 0.3899 -0.4760
vn -0.9854 -0.0013 0.1700
vn 0.2984 -0.3226 0.8983
vn -0.9936 0.1032 -0.0451
vn -0.0428 -0.3694 0.9283
vn -0.9356 0.0026 0.3531
vn -0.0427 -0.3696 0.9282
vn 0.6001 -0.0044 0.7999
vn 0.9917 0.1212 0.0422
vn -0.0017 -1.0000 -0.0041
vn -0.8809 0.3088 -0.3588
vn -0.5054 0.5166 -0.6912
vn -0.4896 0.5146 -0.7039
vn 0.6414 -0.2208 0.7348
vn -0.9915 0.1208 -0.0491
vn 0.0371 0.5726 -0.8190
vn 0.0374 0.5714 -0.8198
vn -0.9765 0.2120 -0.0396
vn -0.9469 0.0844 0.3104
vn 0.9935 0.1039 0.0464
vn 0.8924 -0.0791 0.4443
vn -0.0427 -0.3697 0.9282
vn 0.9912 0.1324 0.0057
vn 0.5164 0.5301 -0.6726
vn -0.6430 0.0594 0.7636
vn -0.6093 0.0037 0.7929
vn 0.5317 0.5269 -0.6630
vn 0.9791 0.1869 -0.0800
vn 0.2233 -0.3327 0.9162
vn 0.9662 0.0001 0.2580
vn -0.0429 -0.3672 0.9291
vn 0.9947 0.0013 -0.1025
vn 0.0370 0.5674 -0.8226
vn -0.0025 1.0000 -0.0007
vn 0.0212 0.8744 -0.4847
vn 0.0165 0.8905 -0.4548
vn -0.3005 0.5622 -0.7705
vn 0.8395 0.3787 -0.3895
vn 0.5495 0.5190 -0.6547
vn 0.9989 -0.0030 0.0468
vn 0.9936 0.1033 0.0458
vn 0.9138 0.0021 -0.4062
vn -0.0458 0.0001 0.9990
vn 0.2539 -0.3292 0.9095
vn 0.3433 0.2235 -0.9122
vn 0.4949 0.0024 -0.8689
vn -0.4703 0.7423 -0.4773
vn 0.9936 0.1034 0.0457
vn 0.9838 0.1723 0.0502
vn -0.0490 0.1556 0.9866
vn -0.7628 -0.1944 0.6167
vn -0.0396 0.2817 0.9587
vn 0.4393 0.0043 0.8984
vn 0.0456 0.2666 -0.9627
vn 0.2666 -0.0041 0.9638
vn -0.0461 0.0004 0.9989
vn 0.9343 0.0826 0.3467
vn 0.9914 0.1304 0.0092
vn -0.3819 -0.3197 0.8671
vn 0.6243 -0.2266 0.7476
vn -0.7097 0.6413 -0.2916
vn 0.3302 0.5675 -0.7542
vn -0.7963 0.6034 -0.0435
vn -0.0427 -0.3699 0.9281
vn -0.0425 -0.3677 0.9290
vn 0.0456 0.0005 -0.9990
vn -0.0588 0.5727 -0.8176
vn -0.4850 0.5231 -0.7008
vn 0.0380 0.5678 -0.8223
vn 0.2893 0.5698 -0.7692
vn -0.3509 -0.3272 0.8774
vn -0.3229 -0.3309 0.8867
vn 0.7894 -0.1574 0.5934
vn 0.8768 -0.1760 0.4475
vn -0.9439 -0.0005 0.3302
vn 0.4265 -0.2995 0.8535
vn 0.9752 -0.0894 0.2026
vn -0.4933 0.5186 -0.6983
vn -0.7557 -0.1996 0.6238
vn -0.7243 -0.0047 0.6894
vn -0.4420 -0.0056 0.8970
vn -0.9864 0.0037 0.1646
vn 0.0399 -0.0013 -0.9992
vn 0.0476 0.0020 -0.9989
vn -0.4124 0.5418 -0.7324
vn 0.0379 0.5676 -0.8224
vn 0.0456 -0.0004 -0.9990
vn 0.9256 0.3365 -0.1732
vn 0.8870 -0.0848 0.4539
vn -0.9429 -0.0660 0.3266
vn 0.0062 -1.0000 -0.0019
vn -0.8162 0.3690 -0.4446
vn 0.9990 -0.0007 0.0454
vn 0.5664 0.8239 0.0183
vn 0.8062 0.4585 -0.3738
vn 0.4993 0.7490 -0.4355
vn 0.4874 0.7623 -0.4257
vn 0.7045 0.4623 -0.5385
vn 0.9441 0.3278 0.0339
vn -0.9651 0.2582 -0.0442
vn 0.0444 -0.0028 -0.9990
vn -0.8686 0.4940 -0.0380
vn 0.0456 -0.0029 -0.9990
vn -0.3552 0.0026 -0.9348
vn -0.8853 0.0046 -0.4650
vn 0.9463 0.2608 -0.1910
vn -0.5550 0.3523 -0.7535
vn -0.4074 -0.3157 0.8570
vn -0.8544 0.1634 -0.4932
vn -0.8043 0.2502 0.5390
vn -0.8052 0.1745 0.5668
vn -0.9935 0.1039 -0.0457
vn 0.2647 -0.3262 0.9075
vn -0.3433 0.2304 -0.9105
vn 0.7028 0.4710 -0.5331
vn -0.5212 0.6000 0.6069
vn -0.5659 0.8243 -0.0180
vn 0.0431 0.3059 -0.9511
vn 0.7381 0.4465 -0.5058
vn 0.9936 0.1033 0.0465
vn 0.0380 0.5673 -0.8227
vn -0.8446 -0.1532 0.5130
vn 0.0494 -0.0048 -0.9988
vn 0.0456 -0.0003 -0.9990
vn 0.0379 0.5670 -0.8229
vn -0.0029 1.0000 -0.0004
vn -0.8143 0.3703 -0.4470
vn -0.7323 -0.2098 0.6479
vn -0.0438 -0.3718 0.9273
vn -0.9877 -0.1487 -0.0483
vn -0.9974 -0.0562 -0.0440
vn -0.9361 0.2444 -0.2528
vn 0.4959 0.1605 0.8534
vn 0.7895 0.3309 0.5169
vn 0.7879 0.4436 0.4271
vn 0.9934 0.1045 0.0483
vn 0.3860 0.7932 0.4711
vn 0.8300 0.5557 0.0474
vn -0.0331 0.6996 0.7138
vn -0.0428 0.6147 0.7876
vn 0.2685 0.9631 0.0168
vn 0.6826 -0.2048 0.7015
vn 0.3356 -0.4262 0.8401
vn -0.0402 -0.4736 0.8798
vn 0.8147 -0.4009 0.4190
vn 0.5805 -0.5446 0.6054
vn 0.3725 -0.7826 0.4988
vn 0.9663 -0.0000 0.2576
vn -0.9935 0.1051 -0.0429
vn -0.9968 0.0530 0.0594
vn -0.0265 -0.8240 0.5660
vn -0.0223 -0.8502 0.5259
vn 0.0381 0.5685 -0.8218
vn 0.0473 -0.0017 -0.9989
vn 0.0040 -0.9997 -0.0227
vn 0.0486 -0.0021 -0.9988
vn 0.9990 -0.0005 0.0456
vn -0.9935 0.0030 -0.1137
vn -0.9989 -0.0018 -0.0465
vn -0.0005 -1.0000 -0.0038
vn 0.9962 -0.0738 0.0461
vn 0.9955 -0.0822 0.0475
vn -0.9989 -0.0015 -0.0467
vn -0.0002 -0.9999 -0.0101
vn 0.4046 0.5527 -0.7286
vn 0.2915 0.5690 -0.7690
vn -0.9984 -0.0019 -0.0558
vn -0.5489 0.5029 -0.6677
vn 0.0310 -0.8538 -0.5196
vn 0.9954 0.0007 -0.0957
vn -0.9951 -0.0867 -0.0480
vn 0.0063 -1.0000 -0.0004
vn -0.9578 -0.0030 -0.2876
vn -0.2301 0.5656 -0.7919
vn 0.9653 -0.2579 0.0410
vn -0.6412 -0.0075 -0.7673
vn 0.9129 -0.4055 0.0464
vn -0.9988 -0.0030 -0.0481
vn -0.9989 -0.0008 -0.0462
vn 0.0069 -1.0000 -0.0032
vn -0.9990 -0.0024 -0.0454
vn -0.4980 -0.2952 0.8154
vn -0.0016 -1.0000 -0.0039
vn 0.6585 -0.2186 0.7202
vn 0.8413 -0.3067 -0.4452
vn 0.8323 -0.1967 -0.5182
vn 0.7303 -0.3991 -0.5545
vn 0.5117 0.0018 -0.8592
vn 0.6374 -0.7700 0.0269
vn 0.5046 -0.8630 0.0247
vn 0.8796 -0.0015 -0.4758
vn 0.0417 -0.5743 -0.8176
vn 0.0543 -0.1782 -0.9825
vn -0.7633 -0.0080 -0.6460
vn 0.9950 -0.0020 0.0994
vn 0.0400 -0.5768 -0.8159
vn 0.9989 -0.0007 0.0458
vn -0.9087 -0.4150 -0.0454
vn -0.0130 -0.9999 -0.0036
vn -0.6943 -0.7188 -0.0356
vn 0.9994 0.0217 0.0268
vn 0.9979 -0.0223 0.0615
vn 0.0001 -1.0000 -0.0093
vn -0.6264 -0.1749 -0.7596
vn -0.3468 -0.4462 -0.8250
vn -0.0003 -1.0000 -0.0002
vn 0.0543 -0.8135 -0.5791
vn 0.0431 -0.0018 -0.9991
vn 0.0595 -0.2119 -0.9755
vn -0.0453 -0.4916 -0.8696
vn 0.0436 0.0016 -0.9990
vn -0.0151 -0.9999 -0.0019
vn 0.0535 -0.1742 -0.9833
vn -0.4374 -0.4444 0.7818
vn -0.8944 -0.3123 0.3202
vn -0.0402 -0.4745 0.8793
vn -0.6371 -0.5294 0.5602
vn -0.9681 -0.2472 -0.0411
vn 0.0193 -0.7169 -0.6969
vn -0.5305 -0.6946 0.4859
vn -0.0006 -1.0000 -0.0004
vn -0.5903 -0.8067 -0.0261
vn 0.9990 -0.0005 0.0455
vn 0.9987 -0.0265 0.0442
vn 0.0018 -0.9998 -0.0213
vn 0.0461 -0.0014 -0.9989
vn -0.9989 -0.0006 -0.0468
vn 0.9990 -0.0002 0.0449
vt 0.262577 0.360510
vt 0.479939 0.312789
vt 0.340538 0.336169
vt 0.521861 0.122802
vt 0.582309 0.115932
vt 0.190260 0.036157
vt 0.319960 0.040685
vt 0.182869 0.015261
vt 0.247258 0.279750
vt 0.530792 0.262973
vt 0.093763 0.273712
vt 0.238760 0.556119
vt 0.429207 0.580216
vt 0.555951 0.574409
vt 0.079432 0.415716
vt 0.545954 0.560114
vt 0.416900 0.222877
vt 0.444511 0.210342
vt 0.250737 0.202072
vt 0.197730 0.519445
vt 0.057926 0.529327
vt 0.129636 0.565830
vt 0.410749 0.501590
vt 0.319275 0.506131
vt 0.291560 0.783247
vt 0.411452 0.771691
vt 0.293830 0.787330
vt 0.114560 0.261889
vt 0.125741 0.578347
vt 0.032309 0.535340
vt 0.203878 0.607694
vt 0.270742 0.606232
vt 0.417048 0.629641
vt 0.399510 0.055202
vt 0.593146 0.110381
vt 0.584319 0.100111
vt 0.517987 0.637482
vt 0.974240 0.532134
vt 0.906988 0.679973
vt 0.903631 0.542922
vt 0.609715 0.226839
vt 0.535646 0.275391
vt 0.624745 0.237733
vt 0.122656 0.979227
vt 0.025998 0.972207
vt 0.051497 0.816805
vt 0.520872 0.634232
vt 0.622174 0.637378
vt 0.139668 0.424595
vt 0.269049 0.750647
vt 0.444852 0.751195
vt 0.444764 0.709975
vt 0.186798 0.004862
vt 0.261808 0.018166
vt 0.812604 0.465730
vt 0.812661 0.518162
vt 0.826347 0.566156
vt 0.402099 0.584805
vt 0.206716 0.583457
vt 0.816567 0.547848
vt 0.670290 0.528378
vt 0.789049 0.291590
vt 0.679121 0.295717
vt 0.800724 0.396358
vt 0.634337 0.225587
vt 0.675142 0.374030
vt 0.268977 0.394212
vt 0.097799 0.813058
vt 0.139177 0.807906
vt 0.475376 0.328509
vt 0.411107 0.310269
vt 0.481972 0.305039
vt 0.474172 0.296537
vt 0.635518 0.236969
vt 0.630497 0.241401
vt 0.536590 0.283126
vt 0.519177 0.643318
vt 0.547226 0.958150
vt 0.583723 0.833110
vt 0.573836 0.959229
vt 0.643410 0.385425
vt 0.678405 0.284159
vt 0.790639 0.279505
vt 0.674675 0.160995
vt 0.985179 0.023958
vt 0.979487 0.067329
vt 0.984191 0.070328
vt 0.088653 0.776921
vt 0.265237 0.755527
vt 0.089452 0.620318
vt 0.618370 0.767694
vt 0.516769 0.764757
vt 0.622262 0.643990
vt 0.142045 0.595919
vt 0.062580 0.594874
vt 0.846911 0.986665
vt 0.840706 0.992585
vt 0.839396 0.985213
vt 0.660990 0.986028
vt 0.794083 0.293196
vt 0.028763 0.524244
vt 0.627353 0.768749
vt 0.087893 0.283231
vt 0.299166 0.286927
vt 0.632719 0.643069
vt 0.841446 0.781193
vt 0.493198 0.290092
vt 0.540471 0.287674
vt 0.054871 0.586557
vt 0.116935 0.587952
vt 0.604161 0.109473
vt 0.672858 0.299593
vt 0.643791 0.223730
vt 0.246319 0.989121
vt 0.195182 0.985227
vt 0.186236 0.803213
vt 0.548184 0.837851
vt 0.792274 0.921748
vt 0.665632 0.846678
vt 0.791772 0.845885
vt 0.835037 0.683524
vt 0.833840 0.635221
vt 0.664029 0.648037
vt 0.664583 0.516659
vt 0.264133 0.292666
vt 0.295882 0.293061
vt 0.090665 0.290919
vt 0.223339 0.292894
vt 0.576367 0.582908
vt 0.579167 0.574476
vt 0.842814 0.758038
vt 0.846655 0.752466
vt 0.520293 0.772287
vt 0.520485 0.770700
vt 0.662022 0.777994
vt 0.791689 0.804289
vt 0.062033 0.411667
vt 0.079767 0.404356
vt 0.597616 0.043687
vt 0.772142 0.043437
vt 0.771727 0.002184
vt 0.614344 0.391786
vt 0.669406 0.164194
vt 0.671170 0.288676
vt 0.666946 0.309289
vt 0.659720 0.486994
vt 0.791543 0.963517
vt 0.660209 0.964882
vt 0.840459 0.772811
vt 0.176882 0.005389
vt 0.013698 0.086943
vt 0.182348 0.000484
vt 0.399161 0.290680
vt 0.632273 0.773369
vt 0.624881 0.780354
vt 0.636579 0.232387
vt 0.848731 0.778565
vt 0.658794 0.564883
vt 0.634237 0.766634
vt 0.646708 0.220598
vt 0.658822 0.761705
vt 0.784165 0.155944
vt 0.310254 0.662966
vt 0.276655 0.689672
vt 0.455735 0.687208
vt 0.036969 0.090366
vt 0.017558 0.529835
vt 0.019019 0.523450
vt 0.671844 0.156403
vt 0.635656 0.647853
vt 0.047247 0.593453
vt 0.057473 0.802568
vt 0.589882 0.578813
vt 0.044149 0.587660
vt 0.344099 0.998374
vt 0.344686 0.992261
vt 0.340055 0.993052
vt 0.526287 0.998527
vt 0.530037 0.992827
vt 0.039265 0.298329
vt 0.180072 0.298112
vt 0.180217 0.339917
vt 0.402225 0.974475
vt 0.363141 0.974696
vt 0.039375 0.339719
vt 0.802111 0.270947
vt 0.941933 0.086464
vt 0.942484 0.271626
vt 0.269079 0.709646
vt 0.641921 0.116242
vt 0.641982 0.074912
vt 0.782252 0.116384
vt 0.798931 0.076540
vt 0.469996 0.973192
vt 0.933324 0.078242
vt 0.463313 0.067353
vt 0.468759 0.785286
vt 0.402424 0.780892
vt 0.402021 0.785956
vt 0.962967 0.319077
vt 0.962956 0.506444
vt 0.954545 0.312721
vt 0.510414 0.786012
vt 0.508506 0.974118
vt 0.655940 0.390838
vt 0.663944 0.767508
vt 0.360802 0.790427
vt 0.341103 0.790874
vt 0.822701 0.506352
vt 0.596112 0.002139
vt 0.150776 0.590532
vt 0.656824 0.382562
vt 0.647973 0.377908
vt 0.660593 0.385902
vt 0.667830 0.990793
vt 0.337602 0.796933
vt 0.653271 0.986192
vt 0.653324 0.920183
vt 0.655567 0.846140
vt 0.667391 0.919633
vt 0.262670 0.772684
vt 0.257907 0.776670
vt 0.652832 0.963948
vt 0.986420 0.722378
vt 0.857826 0.722763
vt 0.858334 0.918007
vt 0.005742 0.087202
vt 0.075076 0.277331
vt 0.532302 0.785865
vt 0.001224 0.089573
vt 0.994807 0.725458
vt 0.998746 0.731465
vt 0.655979 0.771208
vt 0.652841 0.776466
vt 0.509667 0.781314
vt 0.663664 0.802272
vt 0.654714 0.801719
vt 0.077635 0.287469
vt 0.044107 0.803449
vt 0.468567 0.779732
vt 0.072173 0.281428
vt 0.534295 0.991047
vt 0.999420 0.918034
vt 0.782373 0.074381
vt 0.822358 0.311722
vt 0.265465 0.619228
s 0
usemtl model_0.001
f 40/1/1 2/2/1 26/3/1
f 65/4/2 73/5/2 7/6/2
f 73/5/3 11/7/3 6/8/3
f 15/9/4 63/10/4 85/11/4
f 6/8/5 7/6/5 73/5/5
f 79/12/6 72/13/6 64/14/6
f 40/1/7 1/15/7 2/2/7
f 79/12/8 64/14/8 78/16/8
f 74/17/9 45/18/9 9/19/9
f 37/20/10 48/21/10 12/22/10
f 46/23/11 18/24/11 78/16/11
f 68/25/12 81/26/12 70/27/12
f 78/16/13 18/24/13 79/12/13
f 63/10/14 91/28/14 85/11/14
f 10/29/15 12/22/15 33/30/15
f 12/22/16 48/21/16 33/30/16
f 9/19/17 91/28/17 74/17/17
f 19/31/18 8/32/18 20/33/18
f 39/34/19 53/35/19 57/36/19
f 91/28/20 63/10/20 74/17/20
f 22/37/21 20/33/21 8/32/21
f 9/19/22 45/18/22 7/6/22
f 68/38/23 20/39/23 81/40/23
f 28/41/24 38/42/24 34/43/24
f 19/44/25 20/45/25 68/46/25
f 22/37/26 10/47/26 33/48/26
f 16/49/27 1/15/27 48/21/27
f 14/50/28 90/51/28 89/52/28
f 11/7/29 17/53/29 6/8/29
f 17/53/30 39/34/30 66/54/30
f 41/55/31 23/56/31 39/57/31
f 8/58/32 10/29/32 22/59/32
f 73/5/33 65/4/33 28/41/33
f 5/60/34 23/56/34 25/61/34
f 47/62/35 44/63/35 4/64/35
f 27/65/36 73/5/36 28/41/36
f 31/66/35 4/64/35 44/63/35
f 28/41/37 34/43/37 27/65/37
f 18/24/38 3/67/38 37/20/38
f 10/29/39 79/12/39 12/22/39
f 68/68/40 13/69/40 19/44/40
f 1/15/41 3/67/41 92/70/41
f 24/71/42 50/72/42 36/73/42
f 56/74/43 34/43/43 35/75/43
f 34/43/44 54/76/44 35/75/44
f 26/3/45 50/72/45 24/71/45
f 2/2/46 1/15/46 92/70/46
f 20/33/47 22/37/47 21/77/47
f 37/20/48 79/12/48 18/24/48
f 21/78/49 81/79/49 20/80/49
f 2/2/50 92/70/50 49/81/50
f 25/61/51 23/56/51 4/64/51
f 42/82/52 43/83/52 58/84/52
f 47/62/53 42/82/53 44/63/53
f 47/62/54 43/83/54 42/82/54
f 41/55/55 4/64/55 23/56/55
f 2/2/56 50/72/56 26/3/56
f 77/85/57 26/86/57 24/87/57
f 101/88/58 62/89/58 14/90/58
f 3/67/59 18/24/59 92/70/59
f 49/81/60 50/72/60 2/2/60
f 35/91/61 60/92/61 55/93/61
f 80/94/62 19/31/62 51/95/62
f 36/96/63 50/97/63 52/98/63
f 52/98/64 50/97/64 110/99/64
f 43/83/65 47/62/65 57/100/65
f 18/24/66 46/23/66 92/70/66
f 75/101/67 48/21/67 1/15/67
f 55/93/68 56/102/68 35/91/68
f 15/9/69 86/103/69 70/104/69
f 56/102/70 55/93/70 87/105/70
f 55/93/71 22/37/71 33/48/71
f 52/98/72 59/106/72 36/96/72
f 55/93/73 21/77/73 22/37/73
f 55/93/74 60/92/74 21/77/74
f 48/21/75 75/101/75 33/30/75
f 16/49/76 3/67/76 1/15/76
f 81/107/77 60/108/77 54/76/77
f 80/94/78 95/109/78 72/110/78
f 57/36/79 53/35/79 43/111/79
f 44/63/80 30/112/80 31/66/80
f 43/111/81 53/35/81 83/113/81
f 51/114/82 19/115/82 13/116/82
f 81/79/83 21/78/83 60/117/83
f 90/118/84 93/119/84 69/120/84
f 66/121/85 23/56/85 5/60/85
f 66/121/86 39/122/86 23/56/86
f 25/61/87 24/123/87 5/60/87
f 24/123/88 25/61/88 77/124/88
f 13/125/89 68/126/89 70/104/89
f 84/127/90 13/128/90 70/104/90
f 72/13/91 95/129/91 64/14/91
f 64/14/92 95/129/92 67/130/92
f 63/10/93 38/42/93 28/41/93
f 95/109/94 80/94/94 51/95/94
f 64/14/95 67/130/95 78/16/95
f 32/131/96 17/132/96 66/121/96
f 70/104/97 38/42/97 15/9/97
f 54/76/98 34/43/98 38/42/98
f 35/91/99 54/133/99 60/134/99
f 74/17/100 63/10/100 28/41/100
f 108/135/101 59/106/101 71/136/101
f 71/136/102 59/106/102 69/120/102
f 57/100/103 47/62/103 41/55/103
f 24/123/104 66/121/104 5/60/104
f 69/120/105 59/106/105 52/98/105
f 76/137/106 1/15/106 29/138/106
f 72/13/107 79/12/107 10/29/107
f 38/42/108 63/10/108 15/9/108
f 102/139/109 71/140/109 69/141/109
f 11/7/110 39/34/110 17/53/110
f 120/142/111 92/70/111 78/16/111
f 88/143/112 76/144/112 42/82/112
f 76/144/113 29/145/113 30/112/113
f 44/63/114 76/144/114 30/112/114
f 44/63/115 42/82/115 76/144/115
f 30/112/116 40/146/116 77/124/116
f 75/101/117 1/15/117 76/137/117
f 73/5/118 27/65/118 53/35/118
f 89/147/119 52/98/119 107/148/119
f 83/113/120 53/35/120 27/65/120
f 52/98/121 110/99/121 107/148/121
f 59/106/122 108/135/122 61/149/122
f 61/150/123 113/151/123 6/8/123
f 1/15/124 40/1/124 29/138/124
f 61/150/125 17/53/125 32/152/125
f 81/153/126 54/76/126 70/104/126
f 6/8/127 17/53/127 61/150/127
f 83/154/128 27/155/128 56/102/128
f 34/43/129 56/74/129 27/156/129
f 65/4/130 7/6/130 45/18/130
f 8/32/131 19/31/131 80/94/131
f 32/157/132 59/106/132 61/149/132
f 40/146/133 26/158/133 77/124/133
f 82/159/134 83/154/134 56/102/134
f 43/111/135 83/113/135 82/160/135
f 59/106/136 32/157/136 36/96/136
f 29/145/137 40/146/137 30/112/137
f 3/67/138 16/49/138 37/20/138
f 24/123/139 36/161/139 66/121/139
f 86/103/140 15/9/140 85/11/140
f 90/118/141 52/98/141 89/147/141
f 90/118/142 69/120/142 52/98/142
f 66/121/143 36/161/143 32/131/143
f 82/162/144 58/84/144 43/83/144
f 11/7/145 53/35/145 39/34/145
f 38/42/146 70/104/146 54/76/146
f 13/163/147 84/164/147 51/165/147
f 85/11/148 104/166/148 113/151/148
f 104/166/149 85/11/149 91/28/149
f 73/5/150 53/35/150 11/7/150
f 87/105/151 55/93/151 33/48/151
f 75/101/152 87/167/152 33/30/152
f 75/101/153 88/168/153 87/167/153
f 16/49/154 48/21/154 37/20/154
f 58/84/155 87/169/155 88/143/155
f 76/137/156 88/168/156 75/101/156
f 82/159/157 87/105/157 58/170/157
f 82/159/158 56/102/158 87/105/158
f 42/82/159 58/84/159 88/143/159
f 72/13/160 10/29/160 8/58/160
f 95/109/161 51/95/161 94/171/161
f 94/171/162 51/95/162 84/172/162
f 95/129/163 97/173/163 67/130/163
f 97/174/164 95/109/164 94/171/164
f 94/175/165 98/176/165 97/177/165
f 79/12/166 37/20/166 12/22/166
f 45/18/167 28/41/167 65/4/167
f 45/18/168 74/17/168 28/41/168
f 94/175/169 96/178/169 99/179/169
f 98/176/170 94/175/170 99/179/170
f 31/66/171 25/61/171 4/64/171
f 100/180/172 119/181/172 114/182/172
f 101/183/173 103/184/173 98/176/173
f 114/182/174 102/185/174 100/180/174
f 46/23/175 78/16/175 92/70/175
f 6/8/176 104/166/176 7/6/176
f 106/186/177 111/187/177 103/188/177
f 106/189/178 14/50/178 89/52/178
f 67/130/179 49/81/179 78/16/179
f 78/16/180 49/81/180 120/142/180
f 14/190/174 106/191/174 101/192/174
f 106/186/181 89/193/181 111/187/181
f 98/176/182 119/194/182 101/183/182
f 30/112/183 25/61/183 31/66/183
f 25/61/184 30/112/184 77/124/184
f 89/193/185 107/195/185 111/187/185
f 39/34/186 57/36/186 41/196/186
f 105/197/187 117/198/187 118/199/187
f 120/142/188 49/81/188 92/70/188
f 105/200/189 119/201/189 125/202/189
f 99/179/190 124/203/190 114/204/190
f 6/8/191 113/151/191 104/166/191
f 47/62/192 4/64/192 41/55/192
f 109/205/193 49/81/193 67/130/193
f 108/135/194 113/206/194 61/149/194
f 109/205/195 67/130/195 97/173/195
f 91/28/196 7/6/196 104/166/196
f 91/28/197 9/19/197 7/6/197
f 111/207/198 112/208/198 98/176/198
f 100/209/199 125/202/199 119/201/199
f 84/127/200 70/104/200 86/103/200
f 100/210/201 102/139/201 69/141/201
f 80/94/202 72/211/202 8/32/202
f 110/212/203 115/213/203 49/81/203
f 109/205/204 110/212/204 49/81/204
f 112/214/205 110/212/205 109/205/205
f 115/215/206 110/99/206 50/97/206
f 97/177/207 112/208/207 109/216/207
f 112/208/208 97/177/208 98/176/208
f 115/213/209 50/72/209 49/81/209
f 107/148/210 110/99/210 112/217/210
f 117/218/211 125/219/211 62/220/211
f 93/119/212 125/219/212 69/120/212
f 117/221/213 62/89/213 118/222/213
f 112/217/214 111/223/214 107/148/214
f 116/224/215 71/225/215 102/226/215
f 123/227/216 126/228/216 113/151/216
f 122/229/217 124/203/217 99/179/217
f 122/230/218 126/228/218 123/227/218
f 121/231/219 102/226/219 124/232/219
f 116/224/220 102/226/220 121/231/220
f 98/176/221 99/179/221 114/204/221
f 113/206/222 108/135/222 123/233/222
f 108/135/223 122/234/223 123/233/223
f 118/199/224 119/194/224 105/197/224
f 122/229/225 121/235/225 124/203/225
f 116/236/226 108/135/226 71/136/226
f 121/237/227 108/135/227 116/236/227
f 108/135/228 121/237/228 122/234/228
f 90/118/229 62/220/229 93/119/229
f 98/176/230 103/184/230 111/207/230
f 62/220/231 125/219/231 93/119/231
f 96/238/232 84/127/232 86/103/232
f 86/103/233 85/11/233 126/228/233
f 96/239/234 94/171/234 84/172/234
f 96/238/235 86/103/235 126/228/235
f 113/151/236 126/228/236 85/11/236
f 117/198/237 105/197/237 125/240/237
f 99/241/238 96/238/238 126/228/238
f 101/183/239 119/194/239 118/199/239
f 126/242/240 122/229/240 99/179/240
f 114/243/241 124/232/241 102/226/241
f 101/88/242 118/222/242 62/89/242
f 119/194/243 98/176/243 114/204/243
f 106/191/244 103/244/244 101/192/244
f 100/209/245 69/245/245 125/202/245
f 14/90/246 62/89/246 90/246/246
